<svg xmlns="http://www.w3.org/2000/svg" version="1.1" xmlns:xlink="http://www.w3.org/1999/xlink" xmlns:svgjs="http://svgjs.dev/svgjs" width="1000" height="1000"><style>
    #light-icon {
      display: inline;
    }
    #dark-icon {
      display: none;
    }

    @media (prefers-color-scheme: dark) {
      #light-icon {
        display: none;
      }
      #dark-icon {
        display: inline;
      }
    }
  </style><g id="light-icon"><svg xmlns="http://www.w3.org/2000/svg" version="1.1" xmlns:xlink="http://www.w3.org/1999/xlink" xmlns:svgjs="http://svgjs.dev/svgjs" width="1000" height="1000"><g><g transform="matrix(31.25,0,0,31.25,0,0)"><svg xmlns="http://www.w3.org/2000/svg" version="1.1" xmlns:xlink="http://www.w3.org/1999/xlink" xmlns:svgjs="http://svgjs.dev/svgjs" width="32" height="32"><svg width="32" xmlns="http://www.w3.org/2000/svg" height="32" fill="none"><g class="fills"><rect rx="0" ry="0" width="32" height="32" transform="matrix(1.000000, 0.000000, 0.000000, 1.000000, 0.000000, 0.000000)" class="frame-background"></rect></g><g class="frame-children"><ellipse cx="16" cy="16" rx="16" ry="16" transform="matrix(1.000000, 0.000000, 0.000000, 1.000000, 0.000000, 0.000000)" style="fill: rgb(255, 255, 255); fill-opacity: 1;" class="fills"></ellipse><g class="strokes"><g class="inner-stroke-shape" transform="matrix(1.000000, 0.000000, 0.000000, 1.000000, 0.000000, 0.000000)"><defs><clipPath id="b"><use href="#a"></use></clipPath><ellipse cx="16" cy="16" rx="16" ry="16" id="a" style="fill: none; stroke-width: 2; stroke: rgb(0, 0, 0); stroke-opacity: 1;"></ellipse></defs><use href="#a" clip-path="url('#b')"></use></g></g><g mask="url(#d)" clip-path="url(#c)"><defs><filter id="e"><feFlood flood-color="#fff" result="FloodResult"></feFlood><feComposite in="FloodResult" in2="SourceGraphic" operator="in" result="comp"></feComposite></filter><clipPath id="c" class="mask-clip-path"><polyline points="0,0 32,0 32,32 0,32"></polyline></clipPath><mask width="32" maskUnits="userSpaceOnUse" height="32" class="mask-shape" x="0" id="d" data-old-y="0" data-old-width="32" data-old-x="0" y="0" data-old-height="32"><g filter="url(#e)"><ellipse cx="16" cy="16" rx="16" ry="16" transform="matrix(1.000000, 0.000000, 0.000000, 1.000000, 0.000000, 0.000000)" style="fill: rgb(0, 0, 0); fill-opacity: 1;" class="fills"></ellipse></g></mask></defs><rect rx="0" ry="0" transform="matrix(1.000000, 0.000000, 0.000000, 1.000000, 0.000000, 0.000000)" width="13" height="13" style="fill: rgb(0, 0, 0); fill-opacity: 1;" class="fills"></rect><rect rx="0" ry="0" x="19" y="19" transform="matrix(1.000000, 0.000000, 0.000000, 1.000000, 0.000000, 0.000000)" width="13" height="13" style="fill: rgb(0, 0, 0); fill-opacity: 1;" class="fills"></rect></g><ellipse cx="16" cy="16" rx="12" ry="12" transform="matrix(1.000000, 0.000000, 0.000000, 1.000000, 0.000000, 0.000000)" style="fill: rgb(255, 255, 255); fill-opacity: 1;" class="fills"></ellipse><g mask="url(#g)" clip-path="url(#f)"><defs><filter id="h"><feFlood flood-color="#fff" result="FloodResult"></feFlood><feComposite in="FloodResult" in2="SourceGraphic" operator="in" result="comp"></feComposite></filter><clipPath id="f" class="mask-clip-path"><polyline points="4,4 28,4 28,27.999999999999996 4,27.999999999999996"></polyline></clipPath><mask width="24" maskUnits="userSpaceOnUse" height="24" class="mask-shape" x="4" id="g" data-old-y="4" data-old-width="24" data-old-x="4" y="4" data-old-height="24"><g filter="url(#h)"><ellipse cx="16" cy="16" rx="12" ry="12" transform="matrix(1.000000, 0.000000, 0.000000, 1.000000, 0.000000, 0.000000)" style="fill: rgb(0, 0, 0); fill-opacity: 1;" class="fills"></ellipse></g></mask></defs><rect rx="0" ry="0" x="19" y="3" transform="matrix(1.000000, 0.000000, 0.000000, 1.000000, 0.000000, 0.000000)" width="9" height="9" style="fill: rgb(0, 0, 0); fill-opacity: 1;" class="fills"></rect><rect rx="0" ry="0" x="4" y="19" transform="matrix(1.000000, 0.000000, 0.000000, 1.000000, 0.000000, 0.000000)" width="9" height="9" style="fill: rgb(0, 0, 0); fill-opacity: 1;" class="fills"></rect></g><ellipse cx="16" cy="16" rx="10" ry="10" transform="matrix(1.000000, 0.000000, 0.000000, 1.000000, 0.000000, 0.000000)" style="fill: rgb(255, 255, 255); fill-opacity: 1;" class="fills"></ellipse><ellipse cx="12" cy="16" rx="1" ry="1" transform="matrix(1.000000, 0.000000, 0.000000, 1.000000, 0.000000, 0.000000)" style="fill: rgb(0, 0, 0); fill-opacity: 1;" class="fills"></ellipse><ellipse cx="16" cy="16" rx="1" ry="1" transform="matrix(1.000000, 0.000000, 0.000000, 1.000000, 0.000000, 0.000000)" style="fill: rgb(0, 0, 0); fill-opacity: 1;" class="fills"></ellipse><ellipse cx="20" cy="16" rx="1" ry="1" transform="matrix(1.000000, 0.000000, 0.000000, 1.000000, 0.000000, 0.000000)" style="fill: rgb(0, 0, 0); fill-opacity: 1;" class="fills"></ellipse></g></svg></svg></g></g></svg></g><g id="dark-icon"><svg xmlns="http://www.w3.org/2000/svg" version="1.1" xmlns:xlink="http://www.w3.org/1999/xlink" xmlns:svgjs="http://svgjs.dev/svgjs" width="1000" height="1000"><g><g transform="matrix(31.25,0,0,31.25,0,0)"><svg xmlns="http://www.w3.org/2000/svg" version="1.1" xmlns:xlink="http://www.w3.org/1999/xlink" xmlns:svgjs="http://svgjs.dev/svgjs" width="32" height="32"><svg width="32" xmlns="http://www.w3.org/2000/svg" height="32" fill="none"><g class="fills"><rect rx="0" ry="0" width="32" height="32" transform="matrix(1.000000, 0.000000, 0.000000, 1.000000, 0.000000, 0.000000)" class="frame-background"></rect></g><g class="frame-children"><ellipse cx="16" cy="16" rx="16" ry="16" transform="matrix(1.000000, 0.000000, 0.000000, 1.000000, 0.000000, 0.000000)" style="fill: rgb(0, 0, 0); fill-opacity: 1;" class="fills"></ellipse><g class="strokes"><g class="inner-stroke-shape" transform="matrix(1.000000, 0.000000, 0.000000, 1.000000, 0.000000, 0.000000)"><defs><clipPath id="b"><use href="#a"></use></clipPath><ellipse cx="16" cy="16" rx="16" ry="16" id="a" style="fill: none; stroke-width: 2; stroke: rgb(255, 255, 255); stroke-opacity: 1;"></ellipse></defs><use href="#a" clip-path="url('#b')"></use></g></g><g mask="url(#d)" clip-path="url(#c)"><defs><filter id="e"><feFlood flood-color="#fff" result="FloodResult"></feFlood><feComposite in="FloodResult" in2="SourceGraphic" operator="in" result="comp"></feComposite></filter><clipPath id="c" class="mask-clip-path"><polyline points="0,0 32,0 32,32 0,32"></polyline></clipPath><mask width="32" maskUnits="userSpaceOnUse" height="32" class="mask-shape" x="0" id="d" data-old-y="0" data-old-width="32" data-old-x="0" y="0" data-old-height="32"><g filter="url(#e)"><ellipse cx="16" cy="16" rx="16" ry="16" transform="matrix(1.000000, 0.000000, 0.000000, 1.000000, 0.000000, 0.000000)" style="fill: rgb(255, 255, 255); fill-opacity: 1;" class="fills"></ellipse></g></mask></defs><rect rx="0" ry="0" transform="matrix(1.000000, 0.000000, 0.000000, 1.000000, 0.000000, 0.000000)" width="13" height="13" style="fill: rgb(255, 255, 255); fill-opacity: 1;" class="fills"></rect><rect rx="0" ry="0" x="19" y="19" transform="matrix(1.000000, 0.000000, 0.000000, 1.000000, 0.000000, 0.000000)" width="13" height="13" style="fill: rgb(255, 255, 255); fill-opacity: 1;" class="fills"></rect></g><ellipse cx="16" cy="16" rx="12" ry="12" transform="matrix(1.000000, 0.000000, 0.000000, 1.000000, 0.000000, 0.000000)" style="fill: rgb(0, 0, 0); fill-opacity: 1;" class="fills"></ellipse><g mask="url(#g)" clip-path="url(#f)"><defs><filter id="h"><feFlood flood-color="#fff" result="FloodResult"></feFlood><feComposite in="FloodResult" in2="SourceGraphic" operator="in" result="comp"></feComposite></filter><clipPath id="f" class="mask-clip-path"><polyline points="4,4 28,4 28,27.999999999999996 4,27.999999999999996"></polyline></clipPath><mask width="24" maskUnits="userSpaceOnUse" height="24" class="mask-shape" x="4" id="g" data-old-y="4" data-old-width="24" data-old-x="4" y="4" data-old-height="24"><g filter="url(#h)"><ellipse cx="16" cy="16" rx="12" ry="12" transform="matrix(1.000000, 0.000000, 0.000000, 1.000000, 0.000000, 0.000000)" style="fill: rgb(255, 255, 255); fill-opacity: 1;" class="fills"></ellipse></g></mask></defs><rect rx="0" ry="0" x="19" y="3" transform="matrix(1.000000, 0.000000, 0.000000, 1.000000, 0.000000, 0.000000)" width="9" height="9" style="fill: rgb(255, 255, 255); fill-opacity: 1;" class="fills"></rect><rect rx="0" ry="0" x="4" y="19" transform="matrix(1.000000, 0.000000, 0.000000, 1.000000, 0.000000, 0.000000)" width="9" height="9" style="fill: rgb(255, 255, 255); fill-opacity: 1;" class="fills"></rect></g><ellipse cx="16" cy="16" rx="10" ry="10" transform="matrix(1.000000, 0.000000, 0.000000, 1.000000, 0.000000, 0.000000)" style="fill: rgb(0, 0, 0); fill-opacity: 1;" class="fills"></ellipse><ellipse cx="12" cy="16" rx="1" ry="1" transform="matrix(1.000000, 0.000000, 0.000000, 1.000000, 0.000000, 0.000000)" style="fill: rgb(255, 255, 255); fill-opacity: 1;" class="fills"></ellipse><ellipse cx="16" cy="16" rx="1" ry="1" transform="matrix(1.000000, 0.000000, 0.000000, 1.000000, 0.000000, 0.000000)" style="fill: rgb(255, 255, 255); fill-opacity: 1;" class="fills"></ellipse><ellipse cx="20" cy="16" rx="1" ry="1" transform="matrix(1.000000, 0.000000, 0.000000, 1.000000, 0.000000, 0.000000)" style="fill: rgb(255, 255, 255); fill-opacity: 1;" class="fills"></ellipse></g></svg></svg></g></g></svg></g></svg>